# xmcd CD database file
#
# Track frame offsets:
#	150
#	12389
#	27495
#	41121
#	54786
#	66893
#	79336
#	93467
#	107144
#	120476
#	134072
#	149374
#	161648
#	175723
#	189758
#	204928
#	218394
#	230907
#	243672
#	257157
#
# Disc length: 3619 seconds
#
# Revision: 6
# Processed by: cddbd v1.5.2PL0 Copyright (c) Steve Scherf et al.
# Submitted via: CDex 1.51
#
DISCID=1d0e2114
DTITLE=Nat King Cole - Vol.09 - My Fair Lady
DYEAR=2005
DGENRE=Jazz
TTITLE0=Flo And Joe
TTITLE1=If You Stub Your Toe On The Moon
TTITLE2=Return Trip
TTITLE3=A Woman Always Understands
TTITLE4=Put 'Em In A Box, Tie 'Em With A Ribbon
TTITLE5=I've Got A Way With Women
TTITLE6=My Fair Lady
TTITLE7=Lost April [1]
TTITLE8=Lost April [2]
TTITLE9=Lilette
TTITLE10=Lulubelle
TTITLE11=Leap Here
TTITLE12=Portrait Of Jennie
TTITLE13=Don't Cry, Cry Baby
TTITLE14=An Old Piano Plays The Blues
TTITLE15=You Can't Lose A Broken Heart
TTITLE16=My Baby Just Cares For Me
TTITLE17=Can I Come In For A Second ¿
TTITLE18=Baby Won't You Say You Love Me
TTITLE19=Monday Again
EXTD=
EXTT0=
EXTT1=
EXTT2=
EXTT3=
EXTT4=
EXTT5=
EXTT6=
EXTT7=
EXTT8=
EXTT9=
EXTT10=
EXTT11=
EXTT12=
EXTT13=
EXTT14=
EXTT15=
EXTT16=
EXTT17=
EXTT18=
EXTT19=
PLAYORDER=
